<svg width="100" height="100" xmlns="http://www.w3.org/2000/svg">
  <rect width="100" height="100" fill="none"/>
  <circle cx="50" cy="70" r="40" fill="#facc15"/>
  <circle cx="40" cy="65" r="7" fill="#000"/>
  <circle cx="60" cy="65" r="7" fill="#000"/>
  <polygon points="50,0 25,25 40,25 33,50 67,15 60,25 75,25" fill="#eab308"/>
  <polygon points="28,30 20,45 35,45 28,60 52,35 45,45 58,45" fill="#ca8a04"/>
  <polygon points="72,30 80,45 65,45 72,60 48,35 55,45 42,45" fill="#ca8a04"/>
  <polygon points="50,5 45,20 55,20" fill="#a16207"/>
</svg>
